<!-- 45aca2 -->
<svg version="1.1" id="Layer_1" xmlns="http://www.w3.org/2000/svg" xmlns:xlink="http://www.w3.org/1999/xlink" x="0px" y="0px"
	 width="100%" viewBox="0 0 500 500" enable-background="new 0 0 500 500" xml:space="preserve">
<path fill="#000000" opacity="0" stroke="none" 
	d="
M501.000000,249.000000 
	C501.000000,332.981750 501.000000,416.963501 501.000000,500.972626 
	C334.387787,500.972626 167.775558,500.972626 1.081667,500.972626 
	C1.081667,334.424011 1.081667,167.847977 1.081667,1.135967 
	C167.666595,1.135967 334.333282,1.135967 501.000000,1.135967 
	C501.000000,77.102898 501.000000,153.086441 500.689850,229.835556 
	C498.447754,225.255386 494.673187,223.015686 489.028381,223.508911 
	C487.775543,217.308426 484.172302,215.577118 478.369843,215.870224 
	C469.938721,216.296143 461.465332,215.885040 453.006531,215.400208 
	C451.692932,208.237137 450.735992,201.412491 449.006683,194.789520 
	C443.716248,174.528397 433.478821,156.818146 419.672455,141.264099 
	C407.813934,127.904457 393.554901,117.409164 376.990692,110.701202 
	C367.018616,106.662849 356.392273,104.240074 345.712524,100.899132 
	C342.830780,100.087280 340.316528,99.365105 337.758789,98.865005 
	C324.205688,96.214989 310.742065,92.532082 297.057190,91.269653 
	C277.893433,89.501793 258.572388,91.099030 239.804092,95.358505 
	C201.497894,104.052109 165.177292,117.763054 133.018784,141.001190 
	C118.036133,151.827850 105.042786,164.598602 94.459137,179.850891 
	C86.743530,190.970001 81.380959,203.140762 76.579041,215.903412 
	C72.060478,216.426926 68.003937,216.421631 63.816734,216.240799 
	C49.205059,215.609711 34.546223,215.849609 19.914240,216.168533 
	C17.917660,216.212082 14.608069,218.289413 14.258240,219.927383 
	C13.211245,224.829590 13.133686,229.977417 13.040044,235.036072 
	C12.880832,243.636932 14.258666,244.917542 22.935364,245.447678 
	C23.396433,247.565186 23.803253,249.287979 24.132818,251.374237 
	C23.247679,253.116623 22.590321,254.614899 21.607218,255.854935 
	C15.715297,263.286804 11.507316,270.987671 12.804898,281.211029 
	C13.773505,288.842468 14.985891,290.927765 22.933418,291.451782 
	C23.265795,297.365021 25.850657,299.992096 31.092794,299.997528 
	C45.532692,300.012482 59.972809,300.039490 74.412323,299.963684 
	C76.601929,299.952179 78.788780,299.417511 81.140808,299.341766 
	C81.620277,299.501526 81.935867,299.444336 82.271027,299.382751 
	C82.290604,299.378357 82.324028,299.357910 82.207275,299.755096 
	C82.174706,300.641663 82.175446,301.164215 82.355103,301.615601 
	C89.193451,318.796967 99.443520,333.487762 113.240219,345.938690 
	C127.239166,358.572113 143.092941,367.813324 160.659378,374.304230 
	C163.891754,375.498627 164.013901,377.812866 164.045746,380.650970 
	C164.180542,392.667084 171.922531,402.430695 183.630386,404.588470 
	C187.560242,405.312744 191.809326,404.304901 196.084198,404.388519 
	C208.612045,415.453125 228.815414,413.754211 236.869232,391.998871 
	C246.980789,391.998871 257.230255,392.520538 267.402496,391.857391 
	C278.361176,391.142914 289.383881,389.998688 300.138153,387.842499 
	C325.697327,382.717865 349.490997,372.880859 371.668976,359.139374 
	C375.298309,356.890656 376.618347,353.956635 374.929260,350.091858 
	C373.306091,346.378052 369.378082,345.261230 365.330627,347.351440 
	C359.325348,350.452637 353.570312,354.060394 347.471619,356.952545 
	C341.127380,359.961151 334.501373,362.375641 327.955658,364.684021 
	C334.047333,360.840393 340.228790,357.442169 346.300293,353.857605 
	C350.525146,351.363281 351.898041,347.239960 349.923737,343.844452 
	C347.760651,340.124329 344.282013,339.282227 339.743958,341.689392 
	C333.457886,345.023804 327.401093,348.810822 321.017639,351.937592 
	C294.544800,364.904480 266.406372,371.380341 237.044830,372.564148 
	C237.349411,364.883392 237.604446,357.622620 238.024094,350.371368 
	C238.326157,345.152252 238.468246,339.810638 243.506104,336.064758 
	C247.655319,336.638672 251.386246,337.241669 255.483765,337.927124 
	C261.004669,339.573273 266.103271,341.361725 271.324524,342.655243 
	C283.366608,345.638519 301.985107,338.279114 309.014069,327.909393 
	C312.775818,322.359711 316.430420,316.737396 320.529907,311.118195 
	C326.982666,311.677124 333.038910,312.265747 339.390991,313.036041 
	C342.859039,314.819366 345.910400,316.755981 349.228607,317.953003 
	C356.170258,320.457275 363.074951,318.638031 369.804993,317.389709 
	C366.419373,321.003143 363.243103,324.406677 359.864380,327.595764 
	C357.068695,330.234558 357.604034,333.019073 359.419586,335.622406 
	C361.209595,338.189026 363.752441,340.075226 367.006348,338.032776 
	C369.475830,336.482758 371.663269,334.475220 373.937500,332.623688 
	C386.342041,322.524658 396.419739,310.387482 405.421387,297.123718 
	C408.886841,298.402710 412.006866,299.567291 414.836243,300.935516 
	C404.839294,311.779205 395.198944,322.480621 385.383118,333.018555 
	C382.741486,335.854492 381.845734,338.593353 384.304260,341.747925 
	C387.158173,345.409821 390.882141,345.993500 394.219208,343.171112 
	C408.685486,330.936066 421.463287,317.201752 431.499756,300.617126 
	C438.238312,298.609985 445.165802,297.704895 449.440033,291.068695 
	C451.186462,291.028473 452.532501,291.041351 453.934814,291.440002 
	C456.151459,299.374023 456.980652,299.999664 464.828186,300.000244 
	C469.318665,300.000549 473.809875,300.045868 478.299103,299.970795 
	C479.566223,299.949585 481.403717,300.021881 481.981323,299.277069 
	C483.599945,297.189941 485.751404,294.730652 485.823578,292.361237 
	C486.201477,279.954834 486.000183,267.530792 486.000183,254.862823 
	C492.165833,255.434906 497.307953,254.821960 499.924347,248.814545 
	C499.958862,248.735245 500.627411,248.932068 501.000000,249.000000 
z"/>
<path fill="#DEE5F2" opacity="1.000000" stroke="none" 
	d="
M489.055359,223.883148 
	C494.673187,223.015686 498.447754,225.255386 500.689850,230.300568 
	C501.000000,236.021149 501.000000,242.042297 501.000000,248.531738 
	C500.627411,248.932068 499.958862,248.735245 499.924347,248.814545 
	C497.307953,254.821960 492.165833,255.434906 486.000183,254.862823 
	C486.000183,267.530792 486.201477,279.954834 485.823578,292.361237 
	C485.751404,294.730652 483.599945,297.189941 481.981323,299.277069 
	C481.403717,300.021881 479.566223,299.949585 478.299103,299.970795 
	C473.809875,300.045868 469.318665,300.000549 464.828186,300.000244 
	C456.980652,299.999664 456.151459,299.374023 454.409180,291.426086 
	C457.977966,291.018829 461.128662,291.010498 464.279358,291.003815 
	C472.480042,290.986420 474.951782,288.576202 474.988434,280.373138 
	C475.032928,270.423615 475.210358,260.467224 474.902863,250.527023 
	C474.767639,246.155380 476.036102,244.683167 480.477234,244.903381 
	C486.319946,245.193100 487.835480,243.189758 488.044495,237.131805 
	C488.197113,232.709229 488.705505,228.298920 489.055359,223.883148 
z"/>
<path fill="#F0F1F2" opacity="1.000000" stroke="none" 
	d="
M489.028381,223.508911 
	C488.705505,228.298920 488.197113,232.709229 488.044495,237.131805 
	C487.835480,243.189758 486.319946,245.193100 480.477234,244.903381 
	C476.036102,244.683167 474.767639,246.155380 474.902863,250.527023 
	C475.210358,260.467224 475.032928,270.423615 474.988434,280.373138 
	C474.951782,288.576202 472.480042,290.986420 464.279358,291.003815 
	C461.128662,291.010498 457.977966,291.018829 454.352905,291.040314 
	C452.532501,291.041351 451.186462,291.028473 449.281219,290.748535 
	C444.117554,287.019012 445.126190,281.585114 443.982178,276.500641 
	C444.248993,268.531219 444.491272,260.977051 444.803040,252.953568 
	C444.146515,249.810577 447.430878,245.610535 441.491364,244.902237 
	C437.747559,244.455780 434.136108,242.899796 430.465271,241.841522 
	C430.496735,240.562851 430.151093,240.613480 429.901520,240.795700 
	C429.504089,241.085831 429.059753,241.401123 428.827087,241.813904 
	C426.091919,246.666183 422.674988,247.719406 417.241547,245.462265 
	C411.460663,243.060776 407.161041,246.628540 406.996948,252.891785 
	C406.787781,260.874146 408.455200,262.319794 417.518005,261.592438 
	C419.519409,260.561615 421.279633,259.742981 423.403503,258.957764 
	C426.792450,261.654724 429.817780,264.318207 432.918182,267.179565 
	C432.993256,267.377472 433.096558,267.787933 433.096405,268.158875 
	C434.393616,271.007294 435.718262,273.470947 436.982208,275.965332 
	C439.067932,280.081543 437.968475,283.580383 434.201996,285.800537 
	C427.733063,289.613647 420.847260,292.733063 413.098480,291.923553 
	C407.394012,291.327637 401.768677,289.973572 395.799164,288.814850 
	C394.396423,288.485535 393.302643,288.298706 391.921204,287.914062 
	C387.589966,282.486969 383.546356,277.257690 379.004883,271.384583 
	C379.004883,275.149048 379.014191,277.970856 379.003113,280.792633 
	C378.973053,288.443665 376.476715,290.996216 368.906921,291.000458 
	C342.691193,291.015076 316.439758,291.803772 290.276520,290.632019 
	C279.073273,290.130280 268.084137,292.085083 256.939514,291.135773 
	C249.855606,290.532379 242.664597,291.186279 235.214020,291.214355 
	C233.960144,291.512268 233.013840,291.872131 231.884674,291.933411 
	C227.303391,288.971954 224.861649,285.228546 226.251694,278.784607 
	C217.091187,289.122833 208.618317,292.947357 196.241135,291.856171 
	C190.387512,291.340118 184.662415,289.366302 178.553314,287.916138 
	C174.356644,284.903229 167.883408,284.292999 169.000229,276.754456 
	C172.024551,270.327515 174.995621,264.266571 178.194870,257.740204 
	C177.455139,257.117004 176.293152,256.138092 174.615768,254.724960 
	C174.227219,256.772980 174.030334,258.026215 173.748627,259.260040 
	C172.190964,266.082428 171.031204,266.997223 163.984375,267.003571 
	C158.514877,267.008484 153.041977,266.891541 147.577362,267.054840 
	C145.028732,267.131042 142.496109,267.742645 139.556061,268.063080 
	C131.557251,266.571960 129.353882,266.197510 129.961014,255.649506 
	C129.984726,252.057495 129.870300,248.929031 130.033432,245.815109 
	C130.292892,240.862671 133.273911,238.090637 138.191666,237.997879 
	C139.834366,237.966904 141.477554,237.962448 143.566742,237.967743 
	C147.004410,237.936996 149.995850,237.884354 153.445801,237.900940 
	C157.938400,237.924683 161.972488,237.879211 166.411133,237.907181 
	C168.203140,236.904968 170.015625,236.089966 170.874146,234.689972 
	C172.037598,232.792755 172.469849,230.447128 173.514893,228.114532 
	C177.222946,224.585617 180.631851,221.236008 184.408905,217.813751 
	C188.513901,216.772461 192.250778,215.803818 196.421570,214.907928 
	C198.916626,214.960342 200.977737,214.940033 203.417801,215.054443 
	C208.786911,216.557510 213.777084,217.925842 218.995667,219.566803 
	C221.257919,220.638306 223.291748,221.437180 225.659210,222.367111 
	C226.350235,216.191147 230.524231,215.774292 235.462433,215.903000 
	C245.945709,215.943253 255.964890,215.913513 266.447327,215.934204 
	C271.592743,216.365494 276.274841,216.746353 280.986938,217.450653 
	C281.226837,218.135971 281.436737,218.497849 281.646667,218.859711 
	C282.131439,218.273651 282.616211,217.687607 283.107300,217.114594 
	C283.113586,217.127640 283.131836,217.151047 283.542725,217.092438 
	C289.643188,216.633362 295.332794,216.232895 301.428131,215.906250 
	C305.251587,215.258255 307.783417,216.796371 309.987671,219.536041 
	C310.226166,221.299820 310.462585,222.703064 310.476898,224.442108 
	C310.176544,236.090622 310.008148,247.404556 310.162903,258.714081 
	C310.177979,259.816681 312.055511,261.605255 313.296143,261.832458 
	C315.933594,262.315491 318.720917,261.979980 320.877014,261.979980 
	C320.877014,250.302643 320.877014,239.506500 320.924072,228.306381 
	C321.974457,218.369049 322.982208,216.857666 329.480713,215.907349 
	C343.498230,215.985184 357.053375,215.981918 370.608551,215.996613 
	C376.991119,216.003525 378.656189,217.574097 379.038757,224.346817 
	C379.024597,228.492218 379.024597,232.169968 379.024597,236.738968 
	C382.070496,232.318542 384.537079,228.738892 387.321228,225.019470 
	C391.090790,222.518738 394.542816,220.157806 398.373047,217.806091 
	C408.788025,214.068405 418.840149,213.963028 429.197479,217.838486 
	C430.661774,218.099884 431.901398,218.503952 432.999664,218.263184 
	C435.745728,217.661179 438.386078,216.378052 441.145325,216.082596 
	C445.064240,215.663010 449.051758,215.883728 453.009949,215.830872 
	C461.465332,215.885040 469.938721,216.296143 478.369843,215.870224 
	C484.172302,215.577118 487.775543,217.308426 489.028381,223.508911 
M344.714478,263.613007 
	C344.380585,260.961700 345.621582,260.151489 348.174072,260.217926 
	C353.626862,260.359863 359.085938,260.261322 364.691254,260.261322 
	C364.691254,255.274048 364.691254,250.744629 364.691254,245.835007 
	C357.895721,245.835007 351.453552,245.835007 344.956726,245.835007 
	C344.956726,243.174530 344.956726,240.905472 344.956726,237.976257 
	C354.051361,237.976257 362.924561,237.976257 371.739105,237.976257 
	C371.739105,232.702118 371.739105,228.092743 371.739105,223.378815 
	C357.319366,223.378815 343.123535,223.378815 328.998230,223.378815 
	C328.998230,243.683899 328.998230,263.616882 328.998230,283.590393 
	C343.453827,283.590393 357.648315,283.590393 371.709106,283.590393 
	C371.709106,278.570923 371.709106,273.956635 371.709106,268.879395 
	C362.717896,268.879395 353.965332,268.879395 345.012268,268.879395 
	C344.891541,267.131439 344.802307,265.838989 344.714478,263.613007 
M267.455444,238.103241 
	C270.212189,238.103241 272.968903,238.103241 275.599426,238.103241 
	C275.599426,232.652771 275.599426,227.923233 275.599426,223.334625 
	C261.150635,223.334625 247.064835,223.334625 232.949722,223.334625 
	C232.949722,243.599243 232.949722,263.536285 232.949722,283.636902 
	C247.356339,283.636902 261.551697,283.636902 275.586182,283.636902 
	C275.586182,278.536774 275.586182,273.797546 275.586182,268.615967 
	C266.469757,268.615967 257.723602,268.615967 248.973267,268.615967 
	C248.973267,265.701111 248.973267,263.254639 248.973267,260.147156 
	C255.754974,260.147156 262.290741,260.147156 268.720581,260.147156 
	C268.720581,255.073898 268.720581,250.669647 268.720581,245.885986 
	C261.959167,245.885986 255.523270,245.885986 249.126038,245.885986 
	C249.126038,243.110092 249.126038,240.746521 249.126038,238.103241 
	C255.177597,238.103241 260.821503,238.103241 267.455444,238.103241 
M217.482162,234.993439 
	C218.461197,232.949417 219.440216,230.905380 220.452103,228.792740 
	C212.869965,223.590607 205.000687,221.436478 196.416245,222.170197 
	C183.744659,223.253281 176.372757,231.493469 177.893143,242.703079 
	C178.725388,248.839157 182.447006,252.979340 187.593460,255.854889 
	C192.517853,258.606384 197.703323,260.890259 202.630981,263.636414 
	C203.720566,264.243622 205.079315,266.274963 204.775711,267.040283 
	C204.286545,268.273407 202.579651,269.681671 201.278198,269.798065 
	C198.521408,270.044678 195.580826,269.918427 192.923920,269.187683 
	C189.344116,268.203156 185.960648,266.504761 182.340683,265.051605 
	C180.202332,269.317444 178.139160,273.433319 176.101959,277.497375 
	C183.902130,283.518372 195.798813,286.326935 205.080383,284.462982 
	C214.311890,282.609100 219.872009,277.663605 221.072845,270.238342 
	C222.571747,260.970062 219.306122,254.431137 210.497665,249.758286 
	C206.545929,247.661880 202.216721,246.261169 198.330887,244.063644 
	C196.592636,243.080597 195.524094,240.913284 194.151627,239.283447 
	C196.178467,238.509842 198.344666,236.846390 200.204727,237.137680 
	C204.865082,237.867554 209.386795,239.482819 214.531265,240.899048 
	C215.251999,239.442902 216.188080,237.551651 217.482162,234.993439 
M396.621399,227.008530 
	C384.529053,236.164215 380.727264,248.386948 384.062073,262.799744 
	C388.764526,283.123413 415.857544,292.469696 430.909027,279.002686 
	C428.276123,274.884155 425.629852,270.744781 423.003204,266.636078 
	C421.504364,267.275635 420.615814,267.713043 419.688568,268.040985 
	C413.706940,270.156464 408.162994,269.528870 403.540802,264.943451 
	C399.187744,260.625061 398.197418,252.374313 401.026001,246.247574 
	C403.617645,240.634048 409.014008,236.433029 415.003296,238.208176 
	C422.496277,240.429016 424.495117,236.078384 427.123108,231.336533 
	C428.003418,229.748138 428.978607,228.212326 430.100403,226.334427 
	C418.910614,220.663391 408.070679,220.264893 396.621399,227.008530 
M460.499878,223.005142 
	C453.087860,223.005142 445.675842,223.005142 438.473297,223.005142 
	C438.473297,228.515076 438.473297,233.248001 438.473297,238.471375 
	C443.105621,238.471375 447.351532,238.471375 452.040222,238.471375 
	C452.040222,253.882843 452.040222,268.785370 452.040222,283.601013 
	C457.554443,283.601013 462.600433,283.601013 468.114075,283.601013 
	C468.114075,268.317535 468.114075,253.425140 468.114075,238.099884 
	C472.682404,238.099884 476.779053,238.099884 481.106506,238.099884 
	C481.106506,232.927704 481.106506,228.199951 481.106506,223.005142 
	C474.411865,223.005142 467.955750,223.005142 460.499878,223.005142 
M303.314392,238.502686 
	C303.314392,233.423645 303.314392,228.344604 303.314392,223.258545 
	C297.643982,223.258545 292.718353,223.258545 287.641296,223.258545 
	C287.641296,243.585632 287.641296,263.649780 287.641296,283.664795 
	C299.044678,283.664795 310.113403,283.664795 321.166992,283.664795 
	C321.166992,278.588959 321.166992,273.857208 321.166992,268.731628 
	C315.189392,268.731628 309.576416,268.731628 303.314545,268.731628 
	C303.314545,258.726440 303.314545,249.113937 303.314392,238.502686 
M136.943146,249.615219 
	C136.943146,253.048889 136.943146,256.482544 136.943146,259.817047 
	C147.132050,259.817047 156.673035,259.817047 166.211639,259.817047 
	C166.211639,254.697571 166.211639,249.967926 166.211639,245.003693 
	C157.206192,245.003693 148.558212,245.128586 139.917267,244.936981 
	C136.830170,244.868515 136.777023,246.492569 136.943146,249.615219 
M374.549774,244.639877 
	C373.702606,245.842850 372.300018,246.969894 372.123016,248.264481 
	C371.745819,251.023712 372.203247,253.887711 371.953278,256.676025 
	C371.629089,260.292084 372.652588,262.613647 375.919250,262.964111 
	C376.236511,257.170135 376.591553,251.498169 376.780762,245.820694 
	C376.797394,245.321167 375.728546,244.785461 374.549774,244.639877 
M276.007568,248.041443 
	C276.007935,251.684525 275.777161,255.350327 276.132141,258.958527 
	C276.258972,260.247803 277.802917,261.397675 278.700043,262.611176 
	C278.997009,262.338684 279.293945,262.066162 279.590881,261.793640 
	C279.590881,256.143463 279.590881,250.493286 279.590881,243.408661 
	C277.795837,245.318710 276.916504,246.254379 276.007568,248.041443 
M223.439011,251.079468 
	C223.997513,251.799072 224.556015,252.518677 225.531219,253.775192 
	C225.531219,247.311890 225.531219,241.616425 225.531219,234.815918 
	C223.901550,237.708572 223.018631,239.668243 221.788132,241.377731 
	C219.255280,244.896591 219.132339,247.946899 223.439011,251.079468 
z"/>
<path fill="#45aca2" opacity="1.000000" stroke="none" 
	d="
M339.095184,312.854370 
	C333.038910,312.265747 326.982666,311.677124 320.365601,310.805237 
	C316.155731,308.323944 312.506622,306.125946 308.661438,303.629272 
	C298.332214,301.069122 293.561279,305.939667 289.008575,313.535828 
	C285.696838,319.061462 281.124390,323.831543 276.785767,329.080750 
	C272.429901,331.131622 268.466370,333.195068 264.353210,334.896881 
	C261.377411,336.128082 258.203003,336.879364 255.117172,337.844666 
	C251.386246,337.241669 247.655319,336.638672 243.260376,335.791809 
	C238.043884,334.035339 233.491425,332.522705 228.563354,330.972595 
	C218.433380,327.426514 214.250320,330.576019 213.948044,341.168030 
	C213.658875,351.300751 212.950058,361.421539 212.427063,371.520874 
	C216.486649,372.038361 220.210800,372.513062 224.402618,372.991302 
	C228.935440,372.992615 233.000610,372.990417 237.065765,372.988220 
	C266.406372,371.380341 294.544800,364.904480 321.017639,351.937592 
	C327.401093,348.810822 333.457886,345.023804 339.743958,341.689392 
	C344.282013,339.282227 347.760651,340.124329 349.923737,343.844452 
	C351.898041,347.239960 350.525146,351.363281 346.300293,353.857605 
	C340.228790,357.442169 334.047333,360.840393 327.955505,364.659729 
	C327.998199,365.001343 328.045898,365.014069 327.724609,364.909363 
	C326.649841,365.175079 325.896362,365.545471 324.802643,366.064697 
	C291.876526,379.225189 258.416748,387.755493 222.495087,386.005798 
	C218.611511,386.002014 215.185745,386.002014 212.296539,386.002014 
	C210.388947,389.663879 208.758041,392.794556 206.819229,396.078735 
	C202.978378,398.851074 199.445435,401.469940 195.912506,404.088806 
	C191.809326,404.304901 187.560242,405.312744 183.630386,404.588470 
	C171.922531,402.430695 164.180542,392.667084 164.045746,380.650970 
	C164.013901,377.812866 163.891754,375.498627 160.659378,374.304230 
	C143.092941,367.813324 127.239166,358.572113 113.240219,345.938690 
	C99.443520,333.487762 89.193451,318.796967 82.355103,301.615601 
	C82.175446,301.164215 82.174706,300.641663 82.662415,299.736267 
	C87.829964,299.601532 92.425636,299.882812 97.049301,300.522461 
	C101.419258,308.121979 105.484375,315.551819 110.232773,322.515808 
	C112.271698,325.506134 115.729645,327.528870 118.657478,330.021667 
	C118.772079,330.052155 119.003021,330.452209 118.906906,330.751465 
	C119.263527,331.347748 119.716255,331.644775 120.394958,332.192444 
	C121.405113,333.646423 121.938568,335.177948 123.014252,335.999695 
	C129.921875,341.276733 136.723694,346.745483 144.008698,351.458099 
	C149.570312,355.055847 155.793320,357.631134 161.722122,360.661285 
	C162.152374,360.251343 162.582642,359.841431 163.012909,359.431488 
	C162.671753,357.266449 162.330597,355.101410 161.993347,352.475830 
	C161.329712,343.785248 161.041077,335.502533 159.906067,327.337433 
	C158.193222,315.015381 151.854156,308.040405 141.725235,307.100067 
	C135.816223,306.551514 130.974091,304.352081 127.374214,300.121460 
	C134.462616,299.418976 141.993591,301.885010 147.067017,294.720276 
	C151.669434,296.288696 155.869614,297.702576 160.213715,299.406128 
	C163.943329,304.492645 167.529037,309.289490 171.081436,314.480713 
	C175.509705,330.274139 175.902267,346.102051 176.027298,362.382904 
	C176.360352,365.226898 176.666367,367.649323 176.995331,370.068634 
	C177.358795,372.741730 177.743256,375.411926 178.077194,378.503357 
	C177.956253,387.650970 180.873581,390.882690 189.321014,390.991241 
	C195.273346,390.168915 198.727570,386.333130 198.938538,380.116821 
	C199.392532,366.739197 199.637848,353.354523 199.979340,339.545837 
	C200.448563,328.655762 204.554047,320.591400 215.022842,317.027802 
	C222.315903,314.545197 229.310944,316.166656 236.202896,319.041840 
	C246.089508,323.166382 256.067932,325.524933 266.127533,319.427216 
	C273.566650,314.917938 277.457855,307.687469 281.406128,300.088928 
	C284.673859,299.335236 287.502716,298.591736 290.365631,298.018768 
	C291.333618,297.825043 292.412842,297.935760 293.398163,298.127960 
	C296.101959,298.655273 298.776855,299.785492 301.473938,299.819458 
	C319.982025,300.052490 338.492859,300.065643 356.851532,300.424988 
	C355.476105,302.131531 354.251953,303.562653 352.723206,305.147705 
	C347.977478,307.819244 343.536316,310.336792 339.095184,312.854370 
z"/>
<path fill="#45aca2" opacity="1.000000" stroke="none" 
	d="
M428.908478,217.687622 
	C418.840149,213.963028 408.788025,214.068405 398.364807,217.397247 
	C400.135986,207.026123 402.471130,197.106628 404.362396,187.103226 
	C405.100769,183.197952 406.181305,178.559082 404.810638,175.187485 
	C397.761078,157.846924 386.435944,143.493820 371.548218,132.153275 
	C359.926208,123.300339 347.156586,116.521088 332.640228,112.614639 
	C331.234863,112.265465 330.079865,112.154724 328.954285,112.026199 
	C328.983734,112.008400 329.005432,112.073677 328.772156,111.787613 
	C317.515259,109.621445 306.552765,106.873871 295.451813,106.091835 
	C282.984955,105.213593 270.232819,104.907135 257.897278,106.549118 
	C243.425095,108.475479 229.267776,112.767311 214.577164,116.027039 
	C205.371643,119.222748 196.453644,122.155624 187.775558,125.679306 
	C166.011810,134.516327 146.379272,146.989471 129.007065,162.682510 
	C112.656052,177.453033 99.552971,194.780502 91.561653,215.906693 
	C86.392960,215.926727 81.687363,215.875443 76.981758,215.824158 
	C81.380959,203.140762 86.743530,190.970001 94.459137,179.850891 
	C105.042786,164.598602 118.036133,151.827850 133.018784,141.001190 
	C165.177292,117.763054 201.497894,104.052109 239.804092,95.358505 
	C258.572388,91.099030 277.893433,89.501793 297.057190,91.269653 
	C310.742065,92.532082 324.205688,96.214989 337.758789,98.865005 
	C340.316528,99.365105 342.830780,100.087280 345.875305,101.198883 
	C347.234650,102.166801 348.050446,102.719116 348.937958,103.107491 
	C364.241302,109.804222 378.408234,118.190216 390.004791,130.461548 
	C394.655853,135.383240 399.405029,140.212250 404.111664,145.419464 
	C404.758362,146.166901 405.402924,146.578293 406.022430,146.996155 
	C405.997375,147.002594 406.011414,146.952789 405.921021,147.321289 
	C406.719391,149.425201 407.574829,151.178665 408.503326,152.892563 
	C410.998566,157.498566 414.074738,161.877441 415.928650,166.725693 
	C420.232056,177.979843 423.951355,189.457352 427.927521,201.307556 
	C428.267914,207.076416 428.588196,212.382019 428.908478,217.687622 
z"/>
<path fill="#F2F2F3" opacity="1.000000" stroke="none" 
	d="
M76.579041,215.903412 
	C81.687363,215.875443 86.392960,215.926727 91.937057,215.981293 
	C94.934471,217.884964 97.093391,219.785355 99.133278,221.580978 
	C100.230133,220.407974 102.190567,218.311447 104.605568,216.163239 
	C109.712677,216.019608 114.365211,215.927673 119.468559,215.909760 
	C121.877121,215.988037 123.834900,215.987732 125.792625,215.997360 
	C131.983948,216.027832 133.666794,217.635345 133.913391,224.205322 
	C127.316650,233.898514 120.860970,243.267883 114.362831,252.698883 
	C121.169388,261.861572 127.902771,270.688354 134.358322,279.713898 
	C137.696945,284.381653 136.036224,289.858032 130.509689,290.409302 
	C122.901947,291.168152 115.025215,290.955475 107.476997,289.784424 
	C104.200615,289.276093 101.455498,285.343475 98.507996,282.997162 
	C97.067657,289.068024 94.649529,291.251190 88.174721,290.915955 
	C82.168793,290.605011 75.823181,292.808594 70.182899,288.898193 
	C69.810913,288.640289 68.983078,289.016479 68.373085,289.129211 
	C65.021217,289.748627 61.680656,290.850708 58.318756,290.918213 
	C46.509666,291.155273 34.693462,291.037750 22.879955,291.054779 
	C14.985891,290.927765 13.773505,288.842468 12.804898,281.211029 
	C11.507316,270.987671 15.715297,263.286804 21.607218,255.854935 
	C22.590321,254.614899 23.247679,253.116623 24.462963,251.321625 
	C26.452013,249.265305 28.033665,247.625031 30.513781,245.052979 
	C26.968006,245.052979 24.924561,245.052979 22.881115,245.052979 
	C14.258666,244.917542 12.880832,243.636932 13.040044,235.036072 
	C13.133686,229.977417 13.211245,224.829590 14.258240,219.927383 
	C14.608069,218.289413 17.917660,216.212082 19.914240,216.168533 
	C34.546223,215.849609 49.205059,215.609711 63.816734,216.240799 
	C68.003937,216.421631 72.060478,216.426926 76.579041,215.903412 
M112.487015,242.985901 
	C117.136581,236.570114 121.786148,230.154327 126.971107,222.999771 
	C123.796814,222.999771 121.479988,223.319199 119.282074,222.943314 
	C110.730362,221.480774 104.911804,224.526382 100.958893,232.379395 
	C98.585205,237.095062 95.001801,241.201797 91.962074,245.582199 
	C91.611504,245.419983 91.260925,245.257782 90.910355,245.095566 
	C90.910355,237.849869 90.910355,230.604156 90.910355,223.337616 
	C85.467232,223.337616 80.416023,223.337616 75.453888,223.337616 
	C75.453888,243.722382 75.453888,263.767090 75.453888,283.760040 
	C80.773125,283.760040 85.715767,283.760040 90.873398,283.760040 
	C91.683243,277.729065 89.151756,270.920807 95.984825,266.521179 
	C99.552185,271.219299 103.223518,276.126587 106.989464,280.960205 
	C107.867355,282.087006 109.029022,283.769592 110.124489,283.820862 
	C116.132210,284.101929 122.159973,283.954895 128.955933,283.954895 
	C120.750084,272.987335 113.193146,262.887085 105.522354,252.634674 
	C107.798767,249.471893 109.926636,246.515488 112.487015,242.985901 
M38.024132,238.115601 
	C39.434856,238.115601 40.845581,238.115601 43.233047,238.115601 
	C36.692158,247.487915 31.146641,256.373199 24.623697,264.471130 
	C19.764881,270.503113 19.972971,276.807343 20.618723,283.633179 
	C35.084595,283.633179 49.281136,283.633179 63.539566,283.633179 
	C63.539566,278.663086 63.539566,274.065369 63.539566,268.884277 
	C56.144501,268.884277 48.968914,268.884277 40.869659,268.884277 
	C47.417103,259.492004 52.947567,250.582809 59.491032,242.492981 
	C64.377022,236.452362 64.093292,230.161484 63.468334,223.381226 
	C48.988415,223.381226 34.797348,223.381226 20.560192,223.381226 
	C20.560192,228.367416 20.560192,232.967468 20.560192,238.115616 
	C26.242424,238.115616 31.684982,238.115616 38.024132,238.115601 
M68.000305,254.447617 
	C68.000305,250.921082 68.000305,247.394547 68.000305,243.868011 
	C67.624786,243.815063 67.249260,243.762115 66.873741,243.709167 
	C62.932045,249.456253 58.990349,255.203339 54.519520,261.721924 
	C59.593319,261.954224 63.483482,262.132324 68.000305,262.339111 
	C68.000305,259.950317 68.000305,257.671814 68.000305,254.447617 
z"/>
<path fill="#34e3ec" opacity="0.200000" stroke="none" 
	d="
M196.084198,404.388550 
	C199.445435,401.469940 202.978378,398.851074 207.208557,396.172943 
	C217.175568,398.968323 222.966339,395.079803 222.952911,386.009552 
	C258.416748,387.755493 291.876526,379.225189 325.134644,366.094238 
	C326.553253,365.654602 327.299561,365.334351 328.045898,365.014069 
	C328.045898,365.014069 327.998199,365.001343 327.998352,365.025635 
	C334.501373,362.375641 341.127380,359.961151 347.471619,356.952545 
	C353.570312,354.060394 359.325348,350.452637 365.330627,347.351440 
	C369.378082,345.261230 373.306091,346.378052 374.929260,350.091858 
	C376.618347,353.956635 375.298309,356.890656 371.668976,359.139374 
	C349.490997,372.880859 325.697327,382.717865 300.138153,387.842499 
	C289.383881,389.998688 278.361176,391.142914 267.402496,391.857391 
	C257.230255,392.520538 246.980789,391.998871 236.869232,391.998871 
	C228.815414,413.754211 208.612045,415.453125 196.084198,404.388550 
z"/>
<path fill="#34e3ec" opacity="0.200000" stroke="none" 
	d="
M404.109528,145.083435 
	C399.405029,140.212250 394.655853,135.383240 390.004791,130.461548 
	C378.408234,118.190216 364.241302,109.804222 348.937958,103.107491 
	C348.050446,102.719116 347.234650,102.166801 346.222717,101.391037 
	C356.392273,104.240074 367.018616,106.662849 376.990692,110.701202 
	C393.554901,117.409164 407.813934,127.904457 419.672455,141.264099 
	C433.478821,156.818146 443.716248,174.528397 449.006683,194.789520 
	C450.735992,201.412491 451.692932,208.237137 453.006531,215.400208 
	C449.051758,215.883728 445.064240,215.663010 441.145325,216.082596 
	C438.386078,216.378052 435.745728,217.661179 432.999664,218.263184 
	C431.901398,218.503952 430.661774,218.099884 429.197479,217.838486 
	C428.588196,212.382019 428.267914,207.076416 427.962616,200.899017 
	C428.229950,198.579987 428.483704,197.132996 428.734314,195.685471 
	C429.426147,191.689178 431.779816,187.045120 430.519592,183.808426 
	C425.082550,169.844177 417.578125,156.972733 406.011414,146.952789 
	C406.011414,146.952789 405.997375,147.002594 405.932373,146.725098 
	C405.281403,145.992874 404.695465,145.538162 404.109528,145.083435 
z"/>
<path fill="#DDE4F1" opacity="1.000000" stroke="none" 
	d="
M22.933418,291.451782 
	C34.693462,291.037750 46.509666,291.155273 58.318756,290.918213 
	C61.680656,290.850708 65.021217,289.748627 68.373085,289.129211 
	C68.983078,289.016479 69.810913,288.640289 70.182899,288.898193 
	C75.823181,292.808594 82.168793,290.605011 88.174721,290.915955 
	C94.649529,291.251190 97.067657,289.068024 98.507996,282.997162 
	C101.455498,285.343475 104.200615,289.276093 107.476997,289.784424 
	C115.025215,290.955475 122.901947,291.168152 130.509689,290.409302 
	C136.036224,289.858032 137.696945,284.381653 134.358322,279.713898 
	C127.902771,270.688354 121.169388,261.861572 114.362831,252.698883 
	C120.860970,243.267883 127.316650,233.898514 134.342194,224.258774 
	C139.705063,223.314362 143.836517,224.441727 144.696136,229.717331 
	C145.117920,232.305862 143.703796,235.193558 143.120544,237.945862 
	C141.477554,237.962448 139.834366,237.966904 138.191666,237.997879 
	C133.273911,238.090637 130.292892,240.862671 130.033432,245.815109 
	C129.870300,248.929031 129.984726,252.057495 129.618958,255.711243 
	C129.343872,258.712280 124.642235,259.741608 127.429062,263.153961 
	C131.810928,268.519348 136.246429,273.892029 140.046921,279.664764 
	C143.025055,284.188385 148.554703,287.808533 146.664780,294.565735 
	C141.993591,301.885010 134.462616,299.418976 126.944748,300.040527 
	C123.704384,300.064056 121.360947,300.113892 118.663063,300.075684 
	C117.542572,299.702393 116.698494,299.540527 116.022568,299.112854 
	C109.361862,294.898682 109.369781,294.886169 103.424438,300.032318 
	C101.008858,300.059448 99.015083,300.111786 97.021309,300.164124 
	C92.425636,299.882812 87.829964,299.601532 82.779160,299.339081 
	C82.324028,299.357910 82.290604,299.378357 82.125305,299.153961 
	C81.632317,298.994659 81.304611,299.059753 80.976913,299.124847 
	C78.788780,299.417511 76.601929,299.952179 74.412323,299.963684 
	C59.972809,300.039490 45.532692,300.012482 31.092794,299.997528 
	C25.850657,299.992096 23.265795,297.365021 22.933418,291.451782 
z"/>
<path fill="#34e3ec" opacity="0.200000" stroke="none" 
	d="
M308.857544,303.927917 
	C312.506622,306.125946 316.155731,308.323944 319.969116,310.834900 
	C316.430420,316.737396 312.775818,322.359711 309.014069,327.909393 
	C301.985107,338.279114 283.366608,345.638519 271.324524,342.655243 
	C266.103271,341.361725 261.004669,339.573273 255.483765,337.927155 
	C258.203003,336.879364 261.377411,336.128082 264.353210,334.896881 
	C268.466370,333.195068 272.429901,331.131622 277.215179,329.115479 
	C288.684387,329.342438 295.640747,323.565765 301.040070,315.043640 
	C303.461548,311.221588 306.240692,307.626160 308.857544,303.927917 
z"/>
<path fill="#45aca2" opacity="1.000000" stroke="none" 
	d="
M392.208832,288.111877 
	C393.302643,288.298706 394.396423,288.485535 395.882019,289.138855 
	C399.207855,292.073334 402.141907,294.541290 405.075989,297.009277 
	C396.419739,310.387482 386.342041,322.524658 373.937500,332.623688 
	C371.663269,334.475220 369.475830,336.482758 367.006348,338.032776 
	C363.752441,340.075226 361.209595,338.189026 359.419586,335.622406 
	C357.604034,333.019073 357.068695,330.234558 359.864380,327.595764 
	C363.243103,324.406677 366.419373,321.003143 370.075684,317.185364 
	C375.311401,311.163025 380.154633,305.647766 385.315521,299.985229 
	C389.827545,297.052246 390.665100,292.384064 392.208832,288.111877 
z"/>
<path fill="#34e3ec" opacity="0.200000" stroke="none" 
	d="
M431.212616,300.833893 
	C421.463287,317.201752 408.685486,330.936066 394.219208,343.171112 
	C390.882141,345.993500 387.158173,345.409821 384.304260,341.747925 
	C381.845734,338.593353 382.741486,335.854492 385.383118,333.018555 
	C395.198944,322.480621 404.839294,311.779205 415.297302,300.912476 
	C421.103607,300.735138 426.158112,300.784515 431.212616,300.833893 
z"/>
<path fill="#DBE2F1" opacity="1.000000" stroke="none" 
	d="
M431.499756,300.617126 
	C426.158112,300.784515 421.103607,300.735138 415.588013,300.708832 
	C412.006866,299.567291 408.886841,298.402710 405.421387,297.123718 
	C402.141907,294.541290 399.207855,292.073334 396.190918,289.281311 
	C401.768677,289.973572 407.394012,291.327637 413.098480,291.923553 
	C420.847260,292.733063 427.733063,289.613647 434.201996,285.800537 
	C437.968475,283.580383 439.067932,280.081543 436.982208,275.965332 
	C435.718262,273.470947 434.393616,271.007294 433.447357,268.236267 
	C435.913025,269.595154 438.092834,271.172241 440.119568,272.926208 
	C441.509125,274.128754 442.685791,275.577332 443.957611,276.915924 
	C445.126190,281.585114 444.117554,287.019012 448.880829,290.801636 
	C445.165802,297.704895 438.238312,298.609985 431.499756,300.617126 
z"/>
<path fill="#34e3ec" opacity="0.200000" stroke="none" 
	d="
M228.938965,331.010071 
	C233.491425,332.522705 238.043884,334.035339 242.842102,335.820862 
	C238.468246,339.810638 238.326157,345.152252 238.024094,350.371368 
	C237.604446,357.622620 237.349411,364.883392 237.044830,372.564148 
	C233.000610,372.990417 228.935440,372.992615 224.427536,372.524658 
	C224.323563,364.181763 225.022018,356.302795 224.887039,348.438141 
	C224.779480,342.171021 225.781693,336.401917 228.938965,331.010071 
z"/>
<path fill="#34e3ec" opacity="0.200000" stroke="none" 
	d="
M384.997894,300.132477 
	C380.154633,305.647766 375.311401,311.163025 370.197449,316.882629 
	C363.074951,318.638031 356.170258,320.457275 349.228607,317.953003 
	C345.910400,316.755981 342.859039,314.819366 339.390991,313.036041 
	C343.536316,310.336792 347.977478,307.819244 353.067993,305.349854 
	C360.010620,307.170471 364.923065,304.918304 369.440674,300.094940 
	C374.935760,300.062195 379.966827,300.097321 384.997894,300.132477 
z"/>
<path fill="#DEE5F2" opacity="1.000000" stroke="none" 
	d="
M22.935364,245.447678 
	C24.924561,245.052979 26.968006,245.052979 30.513781,245.052979 
	C28.033665,247.625031 26.452013,249.265305 24.540218,250.958191 
	C23.803253,249.287979 23.396433,247.565186 22.935364,245.447678 
z"/>
<path fill="#45aca2" opacity="1.000000" stroke="none" 
	d="
M81.140808,299.341766 
	C81.304611,299.059753 81.632317,298.994659 82.105728,299.158386 
	C81.935867,299.444336 81.620277,299.501526 81.140808,299.341766 
z"/>
<path fill="#000000" opacity="0" stroke="none" 
	d="
M332.890594,112.853073 
	C347.156586,116.521088 359.926208,123.300339 371.548218,132.153275 
	C386.435944,143.493820 397.761078,157.846924 404.810638,175.187485 
	C406.181305,178.559082 405.100769,183.197952 404.362396,187.103226 
	C402.471130,197.106628 400.135986,207.026123 397.986572,217.388031 
	C394.542816,220.157806 391.090790,222.518738 386.954102,224.831665 
	C383.863922,224.482132 381.458405,224.180634 379.052887,223.879150 
	C378.656189,217.574097 376.991119,216.003525 370.608551,215.996613 
	C357.053375,215.981918 343.498230,215.985184 329.641663,215.579437 
	C330.069611,213.015701 330.917145,210.885437 331.508881,208.686340 
	C335.120026,195.265732 332.472198,183.501083 321.694641,174.272690 
	C312.366516,166.285385 300.951355,163.507767 288.707031,162.049377 
	C277.676666,157.793701 266.627014,155.037338 255.204575,155.107925 
	C238.138336,155.213364 222.135925,159.969284 207.056366,167.566345 
	C206.708847,161.007965 205.027344,158.942719 199.013428,159.106613 
	C193.334045,159.261383 187.678513,160.290466 182.007965,160.534225 
	C181.704422,154.839844 180.099167,153.394745 174.199951,152.676193 
	C195.766647,138.233688 218.661514,127.240746 243.432495,120.325920 
	C265.428009,114.185883 287.850922,110.959854 310.698517,111.050354 
	C316.802094,111.074532 322.903198,111.715744 329.005432,112.073677 
	C329.005432,112.073677 328.983734,112.008400 329.149902,112.331314 
	C330.507568,112.720512 331.699066,112.786789 332.890594,112.853073 
M366.082428,166.513840 
	C365.071106,168.494431 363.259918,170.452805 363.204132,172.459961 
	C363.058807,177.689819 363.974426,182.944733 363.908691,188.182632 
	C363.855499,192.422379 366.056274,194.332321 369.636505,194.882431 
	C373.439636,195.466797 376.487518,193.493088 376.796295,189.757919 
	C377.303162,183.627396 377.474091,177.360016 376.758820,171.271072 
	C376.157013,166.147827 371.868011,164.389542 366.082428,166.513840 
M248.896393,131.654648 
	C248.462494,132.713013 247.980225,133.754486 247.603531,134.832840 
	C246.358292,138.397522 246.917496,141.452377 250.575562,143.165741 
	C254.361465,144.938965 257.394348,144.226288 259.926849,140.475632 
	C262.400574,136.812103 265.245117,133.303406 268.417114,130.233154 
	C271.767334,126.990341 271.703247,123.955910 269.058990,120.659729 
	C266.620087,117.619537 262.591797,117.255905 259.475037,120.178505 
	C255.870956,123.558060 252.717010,127.417618 248.896393,131.654648 
M281.704834,149.670746 
	C285.648254,145.105743 289.537109,140.492050 293.553741,135.992401 
	C296.364319,132.843857 297.000885,128.408066 293.713867,126.626999 
	C291.217834,125.274506 286.585693,125.052925 284.407745,126.536163 
	C280.424500,129.248856 277.008118,133.252869 274.418396,137.384659 
	C272.804443,139.959610 272.128021,144.010620 272.862518,146.939941 
	C273.742737,150.450378 277.696411,150.255615 281.704834,149.670746 
M341.301971,187.069916 
	C346.273712,189.606659 349.731293,189.144257 351.266418,185.223648 
	C354.219818,177.680878 353.941650,169.915390 350.950897,162.516312 
	C350.271576,160.835648 347.048798,159.190735 345.089539,159.293777 
	C343.057129,159.400681 339.508881,161.569778 339.440308,162.974426 
	C339.075897,170.441254 339.583893,177.951675 339.842438,185.445190 
	C339.857208,185.874100 340.336578,186.286972 341.301971,187.069916 
z"/>
<path fill="#000000" opacity="0" stroke="none" 
	d="
M143.566742,237.967743 
	C143.703796,235.193558 145.117920,232.305862 144.696136,229.717331 
	C143.836517,224.441727 139.705063,223.314362 134.483246,223.934937 
	C133.666794,217.635345 131.983948,216.027832 125.792625,215.997360 
	C123.834900,215.987732 121.877121,215.988037 119.615776,215.599792 
	C121.918869,210.268188 124.368553,205.229950 127.162697,200.390579 
	C134.508621,187.667572 144.991180,177.541779 155.491943,167.115143 
	C158.438110,167.313904 161.006042,167.813950 163.526764,167.637985 
	C168.344513,167.301682 173.135391,166.580460 177.961380,166.424240 
	C178.294632,172.295883 180.037125,174.261871 185.132324,173.939026 
	C191.072098,173.562683 196.982635,172.724655 202.937683,172.482483 
	C203.495422,180.395477 208.378738,182.599106 215.305710,179.325226 
	C221.587296,176.356384 228.356400,174.419052 234.776306,172.338608 
	C234.062012,172.967224 233.471497,173.266525 232.903595,173.603897 
	C228.182739,176.408493 226.855072,179.810043 228.934753,183.749283 
	C230.920410,187.510468 234.907471,188.242249 239.727036,185.707764 
	C241.470016,184.791153 243.145996,183.737503 244.925323,182.901230 
	C256.942444,177.253159 269.808136,175.552429 283.196167,174.979111 
	C290.803284,179.512726 295.045349,185.623077 294.830902,194.391342 
	C294.166229,194.540390 293.811707,194.745972 293.557159,194.658997 
	C274.383087,188.108246 255.491058,190.530716 236.802811,196.660934 
	C230.406815,198.759003 224.230972,201.528198 217.841736,203.615677 
	C218.362976,202.119263 218.908768,200.935699 219.647736,199.888397 
	C221.804367,196.831848 221.495499,192.276810 218.496750,190.220978 
	C215.552002,188.202148 212.400558,188.015381 209.606766,190.896545 
	C203.001907,197.707977 197.940063,205.383453 195.987640,214.835190 
	C192.250778,215.803818 188.513901,216.772461 184.394730,217.387115 
	C184.828201,213.374847 185.051071,209.435791 186.615570,206.132065 
	C188.416672,202.328751 191.304672,199.011139 193.903137,195.622543 
	C196.546173,192.175842 196.822952,186.415710 194.225937,184.210388 
	C191.574539,181.958847 185.965820,182.478638 183.587143,186.118042 
	C179.205276,192.822327 174.742020,199.665039 171.757477,207.035156 
	C168.974838,213.906708 168.611160,221.496033 173.215759,228.293839 
	C172.469849,230.447128 172.037598,232.792755 170.874146,234.689972 
	C170.015625,236.089966 168.203140,236.904968 166.253647,237.599411 
	C163.492035,235.817764 161.241058,233.252655 159.107513,233.346878 
	C157.005524,233.439697 155.022522,236.226776 152.987305,237.831726 
	C149.995850,237.884354 147.004410,237.936996 143.566742,237.967743 
z"/>
<path fill="#45aca2" opacity="1.000000" stroke="none" 
	d="
M234.910568,172.026947 
	C228.356400,174.419052 221.587296,176.356384 215.305710,179.325226 
	C208.378738,182.599106 203.495422,180.395477 203.229797,172.319778 
	C204.690094,170.498749 205.890106,169.235947 207.090118,167.973145 
	C222.135925,159.969284 238.138336,155.213364 255.204575,155.107925 
	C266.627014,155.037338 277.676666,157.793701 288.861328,162.334564 
	C296.855621,167.346497 302.603607,173.645081 307.098816,181.525162 
	C307.374084,187.262894 307.696655,192.581787 307.865662,198.249893 
	C306.488922,203.019150 305.265747,207.439178 303.775726,212.032379 
	C302.680054,213.414505 301.851227,214.623474 301.022369,215.832428 
	C295.332794,216.232895 289.643188,216.633362 283.418030,216.756424 
	C284.213348,214.677567 285.544250,212.876114 287.184448,210.918152 
	C288.257996,209.840485 289.022308,208.919342 290.330780,207.342346 
	C279.674683,205.856094 270.176056,202.540695 260.109222,204.898453 
	C256.428925,205.760422 252.676712,206.315231 248.567780,207.012238 
	C238.374573,211.107605 228.570908,215.200882 218.767242,219.294159 
	C213.777084,217.925842 208.786911,216.557510 203.626373,214.802948 
	C207.661255,211.244675 211.866531,208.072617 216.371078,204.914169 
	C217.117050,204.601669 217.563736,204.275528 218.008545,203.976303 
	C218.006683,204.003220 217.954544,203.990784 217.954544,203.990784 
	C224.230972,201.528198 230.406815,198.759003 236.802811,196.660934 
	C255.491058,190.530716 274.383087,188.108246 293.557159,194.658997 
	C293.811707,194.745972 294.166229,194.540390 294.830902,194.391342 
	C295.045349,185.623077 290.803284,179.512726 282.971741,174.729706 
	C266.880402,167.560974 251.027847,167.063232 234.910568,172.026947 
z"/>
<path fill="#000000" opacity="0" stroke="none" 
	d="
M147.067017,294.720276 
	C148.554703,287.808533 143.025055,284.188385 140.046921,279.664764 
	C136.246429,273.892029 131.810928,268.519348 127.429062,263.153961 
	C124.642235,259.741608 129.343872,258.712280 129.605331,256.181305 
	C129.353882,266.197510 131.557251,266.571960 139.575867,268.463409 
	C140.198975,274.315948 143.022919,276.873322 149.154617,276.981415 
	C155.750839,277.097748 162.349426,277.079834 168.946991,277.120483 
	C167.883408,284.292999 174.356644,284.903229 178.608978,288.287170 
	C179.661972,290.031128 180.027405,291.678497 181.051620,292.440887 
	C194.075333,302.135834 215.660187,304.615021 229.967926,296.293945 
	C231.521637,297.988464 232.900223,299.389069 234.291183,300.777283 
	C240.224548,306.698883 242.592575,306.581024 248.458649,300.057983 
	C259.610779,300.063446 270.295685,300.114655 280.980591,300.165863 
	C277.457855,307.687469 273.566650,314.917938 266.127533,319.427216 
	C256.067932,325.524933 246.089508,323.166382 236.202896,319.041840 
	C229.310944,316.166656 222.315903,314.545197 215.022842,317.027802 
	C204.554047,320.591400 200.448563,328.655762 199.642059,339.324768 
	C198.860123,336.456451 198.615891,333.341064 197.957672,330.315704 
	C195.762436,320.225769 192.548218,310.536926 183.121094,304.784546 
	C176.133987,300.521088 168.301575,298.780487 160.069794,299.116455 
	C155.869614,297.702576 151.669434,296.288696 147.067017,294.720276 
z"/>
<!-- E -->
<path fill="#52a9b6" opacity="1.000000" stroke="none" 
	d="
M344.713745,264.079773 
	C344.802307,265.838989 344.891541,267.131439 345.012268,268.879395 
	C353.965332,268.879395 362.717896,268.879395 371.709106,268.879395 
	C371.709106,273.956635 371.709106,278.570923 371.709106,283.590393 
	C357.648315,283.590393 343.453827,283.590393 328.998230,283.590393 
	C328.998230,263.616882 328.998230,243.683899 328.998230,223.378815 
	C343.123535,223.378815 357.319366,223.378815 371.739105,223.378815 
	C371.739105,228.092743 371.739105,232.702118 371.739105,237.976257 
	C362.924561,237.976257 354.051361,237.976257 344.956726,237.976257 
	C344.956726,240.905472 344.956726,243.174530 344.956726,245.835007 
	C351.453552,245.835007 357.895721,245.835007 364.691254,245.835007 
	C364.691254,250.744629 364.691254,255.274048 364.691254,260.261322 
	C359.085938,260.261322 353.626862,260.359863 348.174072,260.217926 
	C345.621582,260.151489 344.380585,260.961700 344.713745,264.079773 
z"/>
<!-- E -->
<path fill="#52a9b6" opacity="1.000000" stroke="none" 
	d="
M266.960419,238.103241 
	C260.821503,238.103241 255.177597,238.103241 249.126038,238.103241 
	C249.126038,240.746521 249.126038,243.110092 249.126038,245.885986 
	C255.523270,245.885986 261.959167,245.885986 268.720581,245.885986 
	C268.720581,250.669647 268.720581,255.073898 268.720581,260.147156 
	C262.290741,260.147156 255.754974,260.147156 248.973267,260.147156 
	C248.973267,263.254639 248.973267,265.701111 248.973267,268.615967 
	C257.723602,268.615967 266.469757,268.615967 275.586182,268.615967 
	C275.586182,273.797546 275.586182,278.536774 275.586182,283.636902 
	C261.551697,283.636902 247.356339,283.636902 232.949722,283.636902 
	C232.949722,263.536285 232.949722,243.599243 232.949722,223.334625 
	C247.064835,223.334625 261.150635,223.334625 275.599426,223.334625 
	C275.599426,227.923233 275.599426,232.652771 275.599426,238.103241 
	C272.968903,238.103241 270.212189,238.103241 266.960419,238.103241 
z"/>
<!-- S -->
<path fill="#52a9b6" opacity="1.000000" stroke="none" 
	d="
M217.303162,235.326904 
	C216.188080,237.551651 215.251999,239.442902 214.531265,240.899048 
	C209.386795,239.482819 204.865082,237.867554 200.204727,237.137680 
	C198.344666,236.846390 196.178467,238.509842 194.151627,239.283447 
	C195.524094,240.913284 196.592636,243.080597 198.330887,244.063644 
	C202.216721,246.261169 206.545929,247.661880 210.497665,249.758286 
	C219.306122,254.431137 222.571747,260.970062 221.072845,270.238342 
	C219.872009,277.663605 214.311890,282.609100 205.080383,284.462982 
	C195.798813,286.326935 183.902130,283.518372 176.101959,277.497375 
	C178.139160,273.433319 180.202332,269.317444 182.340683,265.051605 
	C185.960648,266.504761 189.344116,268.203156 192.923920,269.187683 
	C195.580826,269.918427 198.521408,270.044678 201.278198,269.798065 
	C202.579651,269.681671 204.286545,268.273407 204.775711,267.040283 
	C205.079315,266.274963 203.720566,264.243622 202.630981,263.636414 
	C197.703323,260.890259 192.517853,258.606384 187.593460,255.854889 
	C182.447006,252.979340 178.725388,248.839157 177.893143,242.703079 
	C176.372757,231.493469 183.744659,223.253281 196.416245,222.170197 
	C205.000687,221.436478 212.869965,223.590607 220.452103,228.792740 
	C219.440216,230.905380 218.461197,232.949417 217.303162,235.326904 
z"/>
<!-- C -->
<path fill="#52a9b6" opacity="1.000000" stroke="none" 
	d="
M396.932861,226.819305 
	C408.070679,220.264893 418.910614,220.663391 430.100403,226.334427 
	C428.978607,228.212326 428.003418,229.748138 427.123108,231.336533 
	C424.495117,236.078384 422.496277,240.429016 415.003296,238.208176 
	C409.014008,236.433029 403.617645,240.634048 401.026001,246.247574 
	C398.197418,252.374313 399.187744,260.625061 403.540802,264.943451 
	C408.162994,269.528870 413.706940,270.156464 419.688568,268.040985 
	C420.615814,267.713043 421.504364,267.275635 423.003204,266.636078 
	C425.629852,270.744781 428.276123,274.884155 430.909027,279.002686 
	C415.857544,292.469696 388.764526,283.123413 384.062073,262.799744 
	C380.727264,248.386948 384.529053,236.164215 396.932861,226.819305 
z"/>
<path fill="#DCE3F1" opacity="1.000000" stroke="none" 
	d="
M281.406128,300.088928 
	C270.295685,300.114655 259.610779,300.063446 248.030945,299.984406 
	C238.008316,300.004639 236.565918,298.926636 235.521622,291.276337 
	C242.664597,291.186279 249.855606,290.532379 256.939514,291.135773 
	C268.084137,292.085083 279.073273,290.130280 290.276520,290.632019 
	C316.439758,291.803772 342.691193,291.015076 368.906921,291.000458 
	C376.476715,290.996216 378.973053,288.443665 379.003113,280.792633 
	C379.014191,277.970856 379.004883,275.149048 379.004883,271.384583 
	C383.546356,277.257690 387.589966,282.486969 391.921204,287.914062 
	C390.665100,292.384064 389.827545,297.052246 385.315521,299.985229 
	C379.966827,300.097321 374.935760,300.062195 368.984680,300.022369 
	C364.377411,300.061646 360.690094,300.105591 357.002808,300.149567 
	C338.492859,300.065643 319.982025,300.052490 301.473938,299.819458 
	C298.776855,299.785492 296.101959,298.655273 293.398163,298.127960 
	C292.412842,297.935760 291.333618,297.825043 290.365631,298.018768 
	C287.502716,298.591736 284.673859,299.335236 281.406128,300.088928 
z"/>
<!-- T -->
<path fill="#52a9b6" opacity="1.000000" stroke="none" 
	d="
M460.999756,223.005142 
	C467.955750,223.005142 474.411865,223.005142 481.106506,223.005142 
	C481.106506,228.199951 481.106506,232.927704 481.106506,238.099884 
	C476.779053,238.099884 472.682404,238.099884 468.114075,238.099884 
	C468.114075,253.425140 468.114075,268.317535 468.114075,283.601013 
	C462.600433,283.601013 457.554443,283.601013 452.040222,283.601013 
	C452.040222,268.785370 452.040222,253.882843 452.040222,238.471375 
	C447.351532,238.471375 443.105621,238.471375 438.473297,238.471375 
	C438.473297,233.248001 438.473297,228.515076 438.473297,223.005142 
	C445.675842,223.005142 453.087860,223.005142 460.999756,223.005142 
z"/>
<!-- L -->
<path fill="#52a9b6" opacity="1.000000" stroke="none" 
	d="
M303.314453,239.002060 
	C303.314545,249.113937 303.314545,258.726440 303.314545,268.731628 
	C309.576416,268.731628 315.189392,268.731628 321.166992,268.731628 
	C321.166992,273.857208 321.166992,278.588959 321.166992,283.664795 
	C310.113403,283.664795 299.044678,283.664795 287.641296,283.664795 
	C287.641296,263.649780 287.641296,243.585632 287.641296,223.258545 
	C292.718353,223.258545 297.643982,223.258545 303.314392,223.258545 
	C303.314392,228.344604 303.314392,233.423645 303.314453,239.002060 
z"/>
<path fill="#34e3ec" opacity="0.200000" stroke="none" 
	d="
M307.146118,181.106308 
	C302.603607,173.645081 296.855621,167.346497 289.239716,162.415497 
	C300.951355,163.507767 312.366516,166.285385 321.694641,174.272690 
	C332.472198,183.501083 335.120026,195.265732 331.508881,208.686340 
	C330.917145,210.885437 330.069611,213.015701 329.179321,215.505692 
	C322.982208,216.857666 321.974457,218.369049 320.608032,228.231354 
	C317.943054,225.189392 314.511383,224.239929 310.699036,224.106308 
	C310.462585,222.703064 310.226166,221.299820 310.294067,219.378693 
	C311.696014,217.377274 312.793640,215.893707 314.429626,213.682541 
	C310.327606,212.962479 307.185089,212.410843 304.042542,211.859207 
	C305.265747,207.439178 306.488922,203.019150 308.250092,198.312927 
	C312.023773,198.966537 315.259460,199.906357 318.524597,200.854721 
	C319.916260,191.437408 315.974213,184.713562 307.146118,181.106308 
z"/>
<path fill="#45aca2" opacity="1.000000" stroke="none" 
	d="
M173.514893,228.114532 
	C168.611160,221.496033 168.974838,213.906708 171.757477,207.035156 
	C174.742020,199.665039 179.205276,192.822327 183.587143,186.118042 
	C185.965820,182.478638 191.574539,181.958847 194.225937,184.210388 
	C196.822952,186.415710 196.546173,192.175842 193.903137,195.622543 
	C191.304672,199.011139 188.416672,202.328751 186.615570,206.132065 
	C185.051071,209.435791 184.828201,213.374847 184.026581,217.459747 
	C180.631851,221.236008 177.222946,224.585617 173.514893,228.114532 
z"/>
<path fill="#DEE5F2" opacity="1.000000" stroke="none" 
	d="
M229.798523,295.994293 
	C215.660187,304.615021 194.075333,302.135834 181.051620,292.440887 
	C180.027405,291.678497 179.661972,290.031128 178.934723,288.424011 
	C184.662415,289.366302 190.387512,291.340118 196.241135,291.856171 
	C208.618317,292.947357 217.091187,289.122833 226.251694,278.784607 
	C224.861649,285.228546 227.303391,288.971954 231.766785,292.230591 
	C231.154022,293.882355 230.476273,294.938324 229.798523,295.994293 
z"/>
<!-- - -->
<path fill="#52a9b6" opacity="1.000000" stroke="none" 
	d="
M136.943283,249.133316 
	C136.777023,246.492569 136.830170,244.868515 139.917267,244.936981 
	C148.558212,245.128586 157.206192,245.003693 166.211639,245.003693 
	C166.211639,249.967926 166.211639,254.697571 166.211639,259.817047 
	C156.673035,259.817047 147.132050,259.817047 136.943146,259.817047 
	C136.943146,256.482544 136.943146,253.048889 136.943283,249.133316 
z"/>
<path fill="#DBE2F1" opacity="1.000000" stroke="none" 
	d="
M417.276855,261.804626 
	C408.455200,262.319794 406.787781,260.874146 406.996948,252.891785 
	C407.161041,246.628540 411.460663,243.060776 417.241547,245.462265 
	C422.674988,247.719406 426.091919,246.666183 428.827087,241.813904 
	C429.059753,241.401123 429.504089,241.085831 429.901520,240.795700 
	C430.151093,240.613480 430.496735,240.562851 430.465271,241.841522 
	C434.136108,242.899796 437.747559,244.455780 441.491364,244.902237 
	C447.430878,245.610535 444.146515,249.810577 444.504730,252.781311 
	C442.978271,251.753098 441.819641,250.427795 440.600525,249.033310 
	C438.865234,251.453079 437.257080,253.695526 435.248627,255.958038 
	C431.578369,255.357941 428.308411,254.737762 424.650635,253.998215 
	C418.662811,254.502808 416.869507,256.537354 417.276855,261.804626 
z"/>
<path fill="#34e3ec" opacity="0.200000" stroke="none" 
	d="
M248.957306,207.010162 
	C252.676712,206.315231 256.428925,205.760422 260.109222,204.898453 
	C270.176056,202.540695 279.674683,205.856094 290.330780,207.342346 
	C289.022308,208.919342 288.257996,209.840485 286.765747,210.889954 
	C279.353241,212.640106 272.668640,214.261932 265.984070,215.883759 
	C255.964890,215.913513 245.945709,215.943253 235.621338,215.608002 
	C239.863220,212.498734 244.410263,209.754456 248.957306,207.010162 
z"/>
<path fill="#DDE4F1" opacity="1.000000" stroke="none" 
	d="
M310.476898,224.442108 
	C314.511383,224.239929 317.943054,225.189392 320.560974,228.635345 
	C320.877014,239.506500 320.877014,250.302643 320.877014,261.979980 
	C318.720917,261.979980 315.933594,262.315491 313.296143,261.832458 
	C312.055511,261.605255 310.177979,259.816681 310.162903,258.714081 
	C310.008148,247.404556 310.176544,236.090622 310.476898,224.442108 
z"/>
<path fill="#34e3ec" opacity="0.200000" stroke="none" 
	d="
M216.071793,204.900543 
	C211.866531,208.072617 207.661255,211.244675 203.247421,214.668213 
	C200.977737,214.940033 198.916626,214.960342 196.421570,214.907928 
	C197.940063,205.383453 203.001907,197.707977 209.606766,190.896545 
	C212.400558,188.015381 215.552002,188.202148 218.496750,190.220978 
	C221.495499,192.276810 221.804367,196.831848 219.647736,199.888397 
	C218.908768,200.935699 218.362976,202.119263 217.841736,203.615692 
	C217.954544,203.990784 218.006683,204.003220 217.723801,203.806641 
	C216.984543,204.040207 216.528168,204.470367 216.071793,204.900543 
z"/>
<path fill="#DFE5F2" opacity="1.000000" stroke="none" 
	d="
M169.000229,276.754456 
	C162.349426,277.079834 155.750839,277.097748 149.154617,276.981415 
	C143.022919,276.873322 140.198975,274.315948 139.976044,268.511841 
	C142.496109,267.742645 145.028732,267.131042 147.577362,267.054840 
	C153.041977,266.891541 158.514877,267.008484 163.984375,267.003571 
	C171.031204,266.997223 172.190964,266.082428 173.748627,259.260040 
	C174.030334,258.026215 174.227219,256.772980 174.615768,254.724960 
	C176.293152,256.138092 177.455139,257.117004 178.194870,257.740204 
	C174.995621,264.266571 172.024551,270.327515 169.000229,276.754456 
z"/>

<path fill="#34e3ec" opacity="0.200000" stroke="none" 
	d="
M435.648926,255.937958 
	C437.257080,253.695526 438.865234,251.453079 440.600525,249.033310 
	C441.819641,250.427795 442.978271,251.753098 444.435242,253.250641 
	C444.491272,260.977051 444.248993,268.531219 443.982178,276.500641 
	C442.685791,275.577332 441.509125,274.128754 440.119568,272.926208 
	C438.092834,271.172241 435.913025,269.595154 433.447510,267.865295 
	C433.096558,267.787933 432.993256,267.377472 433.103455,266.844299 
	C434.025421,262.853424 434.837189,259.395691 435.648926,255.937958 
z"/>

<path fill="#34e3ec" opacity="0.200000" stroke="none" 
	d="
M229.967926,296.293945 
	C230.476273,294.938324 231.154022,293.882355 231.949661,292.529175 
	C233.013840,291.872131 233.960144,291.512268 235.214020,291.214355 
	C236.565918,298.926636 238.008316,300.004639 247.563721,300.030151 
	C242.592575,306.581024 240.224548,306.698883 234.291183,300.777283 
	C232.900223,299.389069 231.521637,297.988464 229.967926,296.293945 
z"/>
<path fill="#000000" opacity="0" stroke="none" 
	d="
M248.567780,207.012253 
	C244.410263,209.754456 239.863220,212.498734 235.157257,215.537994 
	C230.524231,215.774292 226.350235,216.191147 225.659210,222.367111 
	C223.291748,221.437180 221.257919,220.638306 218.995651,219.566803 
	C228.570908,215.200882 238.374573,211.107605 248.567780,207.012253 
z"/>
<path fill="#000000" opacity="0" stroke="none" 
	d="
M435.248627,255.958038 
	C434.837189,259.395691 434.025421,262.853424 433.028381,266.646423 
	C429.817780,264.318207 426.792450,261.654724 423.509521,258.646240 
	C423.847412,256.906677 424.442932,255.512131 425.038452,254.117584 
	C428.308411,254.737762 431.578369,255.357941 435.248627,255.958038 
z"/>
<path fill="#DFE5F2" opacity="1.000000" stroke="none" 
	d="
M374.856812,244.453217 
	C375.728546,244.785461 376.797394,245.321167 376.780762,245.820694 
	C376.591553,251.498169 376.236511,257.170135 375.919250,262.964111 
	C372.652588,262.613647 371.629089,260.292084 371.953278,256.676025 
	C372.203247,253.887711 371.745819,251.023712 372.123016,248.264481 
	C372.300018,246.969894 373.702606,245.842850 374.856812,244.453217 
z"/>
<path fill="#E0E6F2" opacity="1.000000" stroke="none" 
	d="
M276.022339,247.615753 
	C276.916504,246.254379 277.795837,245.318710 279.590881,243.408661 
	C279.590881,250.493286 279.590881,256.143463 279.590881,261.793640 
	C279.293945,262.066162 278.997009,262.338684 278.700043,262.611176 
	C277.802917,261.397675 276.258972,260.247803 276.132141,258.958527 
	C275.777161,255.350327 276.007935,251.684525 276.022339,247.615753 
z"/>
<path fill="#E0E6F2" opacity="1.000000" stroke="none" 
	d="
M223.219971,250.813293 
	C219.132339,247.946899 219.255280,244.896591 221.788132,241.377731 
	C223.018631,239.668243 223.901550,237.708572 225.531219,234.815918 
	C225.531219,241.616425 225.531219,247.311890 225.531219,253.775192 
	C224.556015,252.518677 223.997513,251.799072 223.219971,250.813293 
z"/>
<path fill="#000000" opacity="0" stroke="none" 
	d="
M266.447327,215.934204 
	C272.668640,214.261932 279.353241,212.640106 286.456482,211.046478 
	C285.544250,212.876114 284.213348,214.677567 283.007141,216.815033 
	C283.131836,217.151047 283.113586,217.127640 282.760437,216.984680 
	C281.923859,216.936874 281.440430,217.032043 280.956970,217.127213 
	C276.274841,216.746353 271.592743,216.365494 266.447327,215.934204 
z"/>
<path fill="#DFE5F2" opacity="1.000000" stroke="none" 
	d="
M379.038757,224.346802 
	C381.458405,224.180634 383.863922,224.482132 386.636536,224.971436 
	C384.537079,228.738892 382.070496,232.318542 379.024597,236.738968 
	C379.024597,232.169968 379.024597,228.492218 379.038757,224.346802 
z"/>
<path fill="#000000" opacity="0" stroke="none" 
	d="
M303.775726,212.032379 
	C307.185089,212.410843 310.327606,212.962479 314.429626,213.682541 
	C312.793640,215.893707 311.696014,217.377274 310.291992,219.018158 
	C307.783417,216.796371 305.251587,215.258255 301.428131,215.906250 
	C301.851227,214.623474 302.680054,213.414505 303.775726,212.032379 
z"/>

<path fill="#34e3ec" opacity="0.200000" stroke="none" 
	d="
M153.445816,237.900940 
	C155.022522,236.226776 157.005524,233.439697 159.107513,233.346878 
	C161.241058,233.252655 163.492035,235.817764 165.849091,237.525970 
	C161.972488,237.879211 157.938400,237.924683 153.445816,237.900940 
z"/>

<path fill="#34e3ec" opacity="0.200000" stroke="none" 
	d="
M424.650635,253.998215 
	C424.442932,255.512131 423.847412,256.906677 423.145874,258.612793 
	C421.279633,259.742981 419.519409,260.561615 417.518005,261.592438 
	C416.869507,256.537354 418.662811,254.502808 424.650635,253.998215 
z"/>
<path fill="#45aca2" opacity="1.000000" stroke="none" 
	d="
M280.986938,217.450653 
	C281.440430,217.032043 281.923859,216.936874 282.754150,216.971619 
	C282.616211,217.687607 282.131439,218.273651 281.646667,218.859711 
	C281.436737,218.497849 281.226837,218.135971 280.986938,217.450653 
z"/>
<path fill="#34e3ec" opacity="0.200000" stroke="none" 
	d="
M160.213715,299.406128 
	C168.301575,298.780487 176.133987,300.521088 183.121094,304.784546 
	C192.548218,310.536926 195.762436,320.225769 197.957672,330.315704 
	C198.615891,333.341064 198.860123,336.456451 199.631287,339.751648 
	C199.637848,353.354523 199.392532,366.739197 198.938538,380.116821 
	C198.727570,386.333130 195.273346,390.168915 189.349762,390.545746 
	C189.030426,381.626221 189.031250,381.623749 180.904541,378.928253 
	C179.983765,378.622864 179.047592,378.363922 178.118561,378.083435 
	C177.743256,375.411926 177.358795,372.741730 176.995331,370.068634 
	C176.666367,367.649323 176.360352,365.226898 176.392593,362.426208 
	C179.933289,363.440338 183.125626,364.834076 186.317963,366.227783 
	C186.881912,365.929626 187.445847,365.631470 188.009796,365.333282 
	C186.560959,353.340729 185.480667,341.287598 183.524216,329.378418 
	C182.362259,322.305542 178.466934,316.571442 171.114746,314.086334 
	C167.529037,309.289490 163.943329,304.492645 160.213715,299.406128 
z"/>
<path fill="#000000" opacity="0" stroke="none" 
	d="
M119.017509,300.163727 
	C121.360947,300.113892 123.704384,300.064056 126.477280,300.095123 
	C130.974091,304.352081 135.816223,306.551514 141.725235,307.100067 
	C151.854156,308.040405 158.193222,315.015381 159.906067,327.337433 
	C161.041077,335.502533 161.329712,343.785248 161.639297,352.482330 
	C153.430984,346.049255 145.194366,339.534424 137.829391,332.150208 
	C128.900330,323.197815 122.994629,312.177185 119.017509,300.163727 
z"/>
<path fill="#34e3ec" opacity="0.200000" stroke="none" 
	d="
M118.663063,300.075684 
	C122.994629,312.177185 128.900330,323.197815 137.829391,332.150208 
	C145.194366,339.534424 153.430984,346.049255 161.635391,352.942871 
	C162.330597,355.101410 162.671753,357.266449 163.012909,359.431488 
	C162.582642,359.841431 162.152374,360.251343 161.722122,360.661285 
	C155.793320,357.631134 149.570312,355.055847 144.008698,351.458099 
	C136.723694,346.745483 129.921875,341.276733 123.014252,335.999695 
	C121.938568,335.177948 121.405113,333.646423 120.235756,331.918884 
	C119.568069,331.080536 119.285545,330.766357 119.003021,330.452209 
	C119.003021,330.452209 118.772079,330.052155 118.488098,329.692444 
	C113.418167,319.574341 108.632202,309.815918 103.846237,300.057526 
	C109.369781,294.886169 109.361862,294.898682 116.022568,299.112854 
	C116.698494,299.540527 117.542572,299.702393 118.663063,300.075684 
z"/>
<path fill="#000000" opacity="0" stroke="none" 
	d="
M228.563354,330.972595 
	C225.781693,336.401917 224.779480,342.171021 224.887039,348.438141 
	C225.022018,356.302795 224.323563,364.181763 223.959869,372.521179 
	C220.210800,372.513062 216.486649,372.038361 212.427063,371.520874 
	C212.950058,361.421539 213.658875,351.300751 213.948044,341.168030 
	C214.250320,330.576019 218.433380,327.426514 228.563354,330.972595 
z"/>
<path fill="#000000" opacity="0" stroke="none" 
	d="
M171.081436,314.480713 
	C178.466934,316.571442 182.362259,322.305542 183.524216,329.378418 
	C185.480667,341.287598 186.560959,353.340729 188.009796,365.333282 
	C187.445847,365.631470 186.881912,365.929626 186.317963,366.227783 
	C183.125626,364.834076 179.933289,363.440338 176.375671,362.003296 
	C175.902267,346.102051 175.509705,330.274139 171.081436,314.480713 
z"/>
<path fill="#000000" opacity="0" stroke="none" 
	d="
M308.661438,303.629242 
	C306.240692,307.626160 303.461548,311.221588 301.040070,315.043640 
	C295.640747,323.565765 288.684387,329.342438 277.543427,328.973206 
	C281.124390,323.831543 285.696838,319.061462 289.008575,313.535828 
	C293.561279,305.939667 298.332214,301.069122 308.661438,303.629242 
z"/>
<path fill="#000000" opacity="0" stroke="none" 
	d="
M103.424438,300.032318 
	C108.632202,309.815918 113.418167,319.574341 118.373505,329.661987 
	C115.729645,327.528870 112.271698,325.506134 110.232773,322.515808 
	C105.484375,315.551819 101.419258,308.121979 97.049301,300.522491 
	C99.015083,300.111786 101.008858,300.059448 103.424438,300.032318 
z"/>
<path fill="#000000" opacity="0" stroke="none" 
	d="
M222.495087,386.005798 
	C222.966339,395.079803 217.175568,398.968323 207.516479,396.019470 
	C208.758041,392.794556 210.388947,389.663879 212.296539,386.002014 
	C215.185745,386.002014 218.611511,386.002014 222.495087,386.005798 
z"/>
<path fill="#000000" opacity="0" stroke="none" 
	d="
M178.077194,378.503387 
	C179.047592,378.363922 179.983765,378.622864 180.904541,378.928253 
	C189.031250,381.623749 189.030426,381.626221 188.954010,390.540771 
	C180.873581,390.882690 177.956253,387.650970 178.077194,378.503387 
z"/>
<path fill="#000000" opacity="0" stroke="none" 
	d="
M356.851532,300.424957 
	C360.690094,300.105591 364.377411,300.061646 368.520691,300.090271 
	C364.923065,304.918304 360.010620,307.170471 353.372620,305.195892 
	C354.251953,303.562653 355.476105,302.131531 356.851532,300.424957 
z"/>
<path fill="#000000" opacity="0" stroke="none" 
	d="
M327.724609,364.909363 
	C327.299561,365.334351 326.553253,365.654602 325.474915,365.945343 
	C325.896362,365.545471 326.649841,365.175079 327.724609,364.909363 
z"/>
<path fill="#000000" opacity="0" stroke="none" 
	d="
M118.906906,330.751465 
	C119.285545,330.766357 119.568069,331.080536 120.009796,331.668213 
	C119.716255,331.644775 119.263527,331.347748 118.906906,330.751465 
z"/>
<path fill="#34e3ec" opacity="0.200000" stroke="none" 
	d="
M155.092377,167.111130 
	C144.991180,177.541779 134.508621,187.667572 127.162697,200.390579 
	C124.368553,205.229950 121.918869,210.268188 119.164970,215.525757 
	C114.365211,215.927673 109.712677,216.019608 104.625443,215.784882 
	C107.855316,207.735672 111.022598,199.725677 115.286224,192.349411 
	C124.644173,176.159729 137.149551,162.373260 152.267960,151.615280 
	C165.850632,141.950119 180.624603,133.923553 195.094864,125.557816 
	C201.436951,121.891251 208.330673,119.178848 214.973907,116.033173 
	C229.267776,112.767311 243.425095,108.475479 257.897278,106.549118 
	C270.232819,104.907135 282.984955,105.213593 295.451813,106.091835 
	C306.552765,106.873871 317.515259,109.621445 328.772156,111.787613 
	C322.903198,111.715744 316.802094,111.074532 310.698517,111.050354 
	C287.850922,110.959854 265.428009,114.185883 243.432495,120.325920 
	C218.661514,127.240746 195.766647,138.233688 173.739594,152.680115 
	C169.067154,153.391296 164.893066,153.366074 160.931107,154.270294 
	C152.744888,156.138626 151.347672,159.550034 155.092377,167.111130 
z"/>
<path fill="#000000" opacity="0" stroke="none" 
	d="
M214.577164,116.027046 
	C208.330673,119.178848 201.436951,121.891251 195.094864,125.557816 
	C180.624603,133.923553 165.850632,141.950119 152.267960,151.615280 
	C137.149551,162.373260 124.644173,176.159729 115.286224,192.349411 
	C111.022598,199.725677 107.855316,207.735672 104.170883,215.836578 
	C102.190567,218.311447 100.230133,220.407974 99.133278,221.580978 
	C97.093391,219.785355 94.934471,217.884964 92.400146,215.909973 
	C99.552971,194.780502 112.656052,177.453033 129.007065,162.682510 
	C146.379272,146.989471 166.011810,134.516327 187.775558,125.679306 
	C196.453644,122.155624 205.371643,119.222748 214.577164,116.027046 
z"/>
<path fill="#000000" opacity="0" stroke="none" 
	d="
M405.921021,147.321289 
	C417.578125,156.972733 425.082550,169.844177 430.519592,183.808426 
	C431.779816,187.045120 429.426147,191.689178 428.734314,195.685471 
	C428.483704,197.132996 428.229950,198.579987 427.942505,200.435760 
	C423.951355,189.457352 420.232056,177.979843 415.928650,166.725693 
	C414.074738,161.877441 410.998566,157.498566 408.503326,152.892563 
	C407.574829,151.178665 406.719391,149.425201 405.921021,147.321289 
z"/>
<path fill="#34e3ec" opacity="0.200000" stroke="none" 
	d="
M332.640228,112.614639 
	C331.699066,112.786789 330.507568,112.720512 329.120453,112.349106 
	C330.079865,112.154724 331.234863,112.265465 332.640228,112.614639 
z"/>
<path fill="#000000" opacity="0" stroke="none" 
	d="
M404.111664,145.419464 
	C404.695465,145.538162 405.281403,145.992874 405.957397,146.718643 
	C405.402924,146.578293 404.758362,146.166901 404.111664,145.419464 
z"/>
<!-- K -->
<path fill="#52a9b6" opacity="1.000000" stroke="none" 
	d="
M112.270752,243.272491 
	C109.926636,246.515488 107.798767,249.471893 105.522354,252.634674 
	C113.193146,262.887085 120.750084,272.987335 128.955933,283.954895 
	C122.159973,283.954895 116.132210,284.101929 110.124489,283.820862 
	C109.029022,283.769592 107.867355,282.087006 106.989464,280.960205 
	C103.223518,276.126587 99.552185,271.219299 95.984825,266.521179 
	C89.151756,270.920807 91.683243,277.729065 90.873398,283.760040 
	C85.715767,283.760040 80.773125,283.760040 75.453888,283.760040 
	C75.453888,263.767090 75.453888,243.722382 75.453888,223.337616 
	C80.416023,223.337616 85.467232,223.337616 90.910355,223.337616 
	C90.910355,230.604156 90.910355,237.849869 90.910355,245.095566 
	C91.260925,245.257782 91.611504,245.419983 91.962074,245.582199 
	C95.001801,241.201797 98.585205,237.095062 100.958893,232.379395 
	C104.911804,224.526382 110.730362,221.480774 119.282074,222.943314 
	C121.479988,223.319199 123.796814,222.999771 126.971107,222.999771 
	C121.786148,230.154327 117.136581,236.570114 112.270752,243.272491 
z"/>
<!-- Z -->
<path fill="#52a9b6" opacity="1.000000" stroke="none" 
	d="
M37.575836,238.115601 
	C31.684982,238.115616 26.242424,238.115616 20.560192,238.115616 
	C20.560192,232.967468 20.560192,228.367416 20.560192,223.381226 
	C34.797348,223.381226 48.988415,223.381226 63.468334,223.381226 
	C64.093292,230.161484 64.377022,236.452362 59.491032,242.492981 
	C52.947567,250.582809 47.417103,259.492004 40.869659,268.884277 
	C48.968914,268.884277 56.144501,268.884277 63.539566,268.884277 
	C63.539566,274.065369 63.539566,278.663086 63.539566,283.633179 
	C49.281136,283.633179 35.084595,283.633179 20.618723,283.633179 
	C19.972971,276.807343 19.764881,270.503113 24.623697,264.471130 
	C31.146641,256.373199 36.692158,247.487915 43.233047,238.115601 
	C40.845581,238.115601 39.434856,238.115601 37.575836,238.115601 
z"/>
<path fill="#DFE5F2" opacity="1.000000" stroke="none" 
	d="
M68.000305,254.920441 
	C68.000305,257.671814 68.000305,259.950317 68.000305,262.339111 
	C63.483482,262.132324 59.593319,261.954224 54.519520,261.721924 
	C58.990349,255.203339 62.932045,249.456253 66.873741,243.709167 
	C67.249260,243.762115 67.624786,243.815063 68.000305,243.868011 
	C68.000305,247.394547 68.000305,250.921082 68.000305,254.920441 
z"/>
<path fill="#34e3ec" opacity="0.200000" stroke="none" 
	d="
M366.408875,166.315628 
	C371.868011,164.389542 376.157013,166.147827 376.758820,171.271072 
	C377.474091,177.360016 377.303162,183.627396 376.796295,189.757919 
	C376.487518,193.493088 373.439636,195.466797 369.636505,194.882431 
	C366.056274,194.332321 363.855499,192.422379 363.908691,188.182632 
	C363.974426,182.944733 363.058807,177.689819 363.204132,172.459961 
	C363.259918,170.452805 365.071106,168.494431 366.408875,166.315628 
z"/>
<path fill="#45aca2" opacity="1.000000" stroke="none" 
	d="
M249.132019,131.361710 
	C252.717010,127.417618 255.870956,123.558060 259.475037,120.178505 
	C262.591797,117.255905 266.620087,117.619537 269.058990,120.659729 
	C271.703247,123.955910 271.767334,126.990341 268.417114,130.233154 
	C265.245117,133.303406 262.400574,136.812103 259.926849,140.475632 
	C257.394348,144.226288 254.361465,144.938965 250.575562,143.165741 
	C246.917496,141.452377 246.358292,138.397522 247.603531,134.832840 
	C247.980225,133.754486 248.462494,132.713013 249.132019,131.361710 
z"/>
<path fill="#34e3ec" opacity="0.200000" stroke="none" 
	d="
M281.317810,149.791870 
	C277.696411,150.255615 273.742737,150.450378 272.862518,146.939941 
	C272.128021,144.010620 272.804443,139.959610 274.418396,137.384659 
	C277.008118,133.252869 280.424500,129.248856 284.407745,126.536163 
	C286.585693,125.052925 291.217834,125.274506 293.713867,126.626999 
	C297.000885,128.408066 296.364319,132.843857 293.553741,135.992401 
	C289.537109,140.492050 285.648254,145.105743 281.317810,149.791870 
z"/>
<path fill="#45aca2" opacity="1.000000" stroke="none" 
	d="
M340.950836,186.888611 
	C340.336578,186.286972 339.857208,185.874100 339.842438,185.445190 
	C339.583893,177.951675 339.075897,170.441254 339.440308,162.974426 
	C339.508881,161.569778 343.057129,159.400681 345.089539,159.293777 
	C347.048798,159.190735 350.271576,160.835648 350.950897,162.516312 
	C353.941650,169.915390 354.219818,177.680878 351.266418,185.223648 
	C349.731293,189.144257 346.273712,189.606659 340.950836,186.888611 
z"/>
<path fill="#45aca2" opacity="1.000000" stroke="none" 
	d="
M155.491943,167.115143 
	C151.347672,159.550034 152.744888,156.138626 160.931107,154.270294 
	C164.893066,153.366074 169.067154,153.391296 173.605530,152.991791 
	C180.099167,153.394745 181.704422,154.839844 181.969513,160.874878 
	C180.602859,163.083862 179.270142,164.551422 177.937424,166.018997 
	C173.135391,166.580460 168.344513,167.301682 163.526764,167.637985 
	C161.006042,167.813950 158.438110,167.313904 155.491943,167.115143 
z"/>
<path fill="#34e3ec" opacity="0.200000" stroke="none" 
	d="
M177.961380,166.424240 
	C179.270142,164.551422 180.602859,163.083862 181.974030,161.275635 
	C187.678513,160.290466 193.334045,159.261383 199.013428,159.106613 
	C205.027344,158.942719 206.708847,161.007965 207.056366,167.566345 
	C205.890106,169.235947 204.690094,170.498749 203.197968,171.924271 
	C196.982635,172.724655 191.072098,173.562683 185.132324,173.939026 
	C180.037125,174.261871 178.294632,172.295883 177.961380,166.424240 
z"/>
<path fill="#34e3ec" opacity="0.200000" stroke="none" 
	d="
M234.776306,172.338608 
	C251.027847,167.063232 266.880402,167.560974 282.653381,174.579681 
	C269.808136,175.552429 256.942444,177.253159 244.925323,182.901230 
	C243.145996,183.737503 241.470016,184.791153 239.727036,185.707764 
	C234.907471,188.242249 230.920410,187.510468 228.934753,183.749283 
	C226.855072,179.810043 228.182739,176.408493 232.903595,173.603897 
	C233.471497,173.266525 234.062012,172.967224 234.776306,172.338608 
z"/>
<path fill="#000000" opacity="0" stroke="none" 
	d="
M307.098816,181.525162 
	C315.974213,184.713562 319.916260,191.437408 318.524597,200.854721 
	C315.259460,199.906357 312.023773,198.966537 308.403656,197.963684 
	C307.696655,192.581787 307.374084,187.262894 307.098816,181.525162 
z"/>
<path fill="#000000" opacity="0" stroke="none" 
	d="
M216.371078,204.914169 
	C216.528168,204.470367 216.984543,204.040207 217.725662,203.779724 
	C217.563736,204.275528 217.117050,204.601669 216.371078,204.914169 
z"/>
</svg>